<?xml version="1.0" encoding="UTF-8"?>
<svg xmlns="http://www.w3.org/2000/svg" xmlns:xlink="http://www.w3.org/1999/xlink" viewBox="0 0 93.52 85.06">
  <defs>
    <style>
      .cls-1 {
        fill: #fff;
      }

      .cls-2 {
        fill: #672f63;
      }

      .cls-3 {
        clip-path: url(#clippath);
      }

      .cls-4 {
        fill: none;
      }
    </style>
    <clipPath id="clippath">
      <rect class="cls-4" x="36.27" y="24.49" width="20.98" height="36.82"/>
    </clipPath>
  </defs>
  <g id="Livello_1" data-name="Livello 1">
    <ellipse class="cls-1" cx="44.76" cy="42.9" rx="31.5" ry="32"/>
  </g>
  <g id="Livello_3" data-name="Livello 3">
    <g class="cls-3">
      <path class="cls-2" d="M52.67,45.46h2.07s.02-4.99,.02-4.99h-2.07s-.02,4.99-.02,4.99Zm3.84-.72c.98-.97,.99-2.56,.01-3.54l-15.84-15.98c-.97-.98-2.56-.99-3.54-.01-.98,.97-.99,2.56-.01,3.54l14.08,14.2-14.2,14.08c-.98,.97-.99,2.56-.01,3.54,.97,.98,2.56,.99,3.54,.01l15.98-15.84Z"/>
    </g>
  </g>
</svg>